<svg id="Illustration" xmlns="http://www.w3.org/2000/svg" xmlns:xlink="http://www.w3.org/1999/xlink" width="801" height="800" viewBox="0 0 801 800">
  <defs>
    <linearGradient id="linear-gradient" x1="0.226" y1="0.21" x2="0.56" y2="1.003" gradientUnits="objectBoundingBox">
      <stop offset="0" stop-color="#b35464" stop-opacity="0.239"/>
      <stop offset="1" stop-color="#781d83" stop-opacity="0.239"/>
    </linearGradient>
    <linearGradient id="linear-gradient-2" x1="0.015" y1="0.5" x2="0.889" y2="0.5" gradientUnits="objectBoundingBox">
      <stop offset="0" stop-color="#b35464"/>
      <stop offset="1" stop-color="#781d83"/>
    </linearGradient>
    <linearGradient id="linear-gradient-3" x1="0.455" y1="0.154" x2="0.98" y2="0.763" gradientUnits="objectBoundingBox">
      <stop offset="0" stop-color="#200d47" stop-opacity="0.329"/>
      <stop offset="1" stop-color="#5e3e9e" stop-opacity="0.329"/>
    </linearGradient>
    <linearGradient id="linear-gradient-4" x1="0.098" y1="0.598" x2="0.9" y2="0.511" gradientUnits="objectBoundingBox">
      <stop offset="0" stop-color="#e7755e"/>
      <stop offset="1" stop-color="#ffaf9f"/>
    </linearGradient>
    <linearGradient id="linear-gradient-5" x1="0.768" y1="0.136" x2="0.432" y2="0.831" gradientUnits="objectBoundingBox">
      <stop offset="0" stop-color="#853a2a" stop-opacity="0.29"/>
      <stop offset="1" stop-color="#4f160a" stop-opacity="0.29"/>
    </linearGradient>
  </defs>
  <rect id="Rectangle" width="801" height="800" fill="#f3d083"/>
  <path id="Path" d="M0,0C258.2,165.1,730.1,303.8,746.9,564.2c4.5,69.4-12.4,128.2-42,177.9H0Z" transform="translate(0 57.9)" fill="url(#linear-gradient)"/>
  <path id="Path-2" data-name="Path" d="M555.2,707.9H0V0C169.8,150.1,703.5,251.1,720,471.6,728.5,585.4,645.9,660.3,555.2,707.9Z" transform="translate(0 92.1)" fill="url(#linear-gradient-2)"/>
  <path id="Path-3" data-name="Path" d="M653.8,181.9c-28.2,28.1-62.8,51.2-98.6,70H0V171.5C59.8,69.8,182.5,0,324,0,470.2,0,596.4,74.6,653.8,181.9Z" transform="translate(0 548.1)" fill="#652079"/>
  <path id="Path-4" data-name="Path" d="M528.3,312.3H0V34.3C49.6,12.4,105.8,0,165.4,0,365.8.1,528.3,139.9,528.3,312.3Z" transform="translate(0 487.7)" fill="#2b1e65"/>
  <ellipse id="Oval" cx="100.5" cy="26" rx="100.5" ry="26" transform="translate(123 566.8)" fill="#181446"/>
  <ellipse id="Oval-2" data-name="Oval" cx="61.3" cy="17.3" rx="61.3" ry="17.3" transform="translate(569.4 601.5)" fill="#641b76"/>
  <g id="Group" transform="translate(567 331)">
    <path id="Path-5" data-name="Path" d="M10.9,1.4S5.7,9.4,2,16c-3.7,6.7-3,12.3,8.5,3.8S25.7,8.6,24.5,5.4A19.3,19.3,0,0,0,21.7,0Z" transform="translate(76.803 277.6)" fill="#a6496c"/>
    <path id="Path-6" data-name="Path" d="M0,4.984s1.4,20,2.4,34.9a212.872,212.872,0,0,0,2.9,24.6s7,2.2,10.9-1.3c0,0,2.4-17,3.8-27.4,1.5-10.4,2.6-26.7,2-33.4C21.6-4.216,0,4.984,0,4.984Z" transform="translate(82.3 214.516)" fill="#ff9f8c"/>
    <path id="Path-7" data-name="Path" d="M13.465,1.1S3.565,9.3.665,13.7c-2.8,4.4,3.5,4.2,14,0,9.6-3.8,11.3-5.2,11.9-6.4.7-1.2-1.1-7.3-1.1-7.3Z" transform="translate(34.735 271.1)" fill="#a6496c"/>
    <path id="Path-8" data-name="Path" d="M1.3,2.1S-.6,11.8.2,31.7,2.1,60,2.1,60s7.4,3.5,12.1-1.1c0,0,.7-14.5,1.7-21.4S22.3,14.2,22.4,5,1.3,2.1,1.3,2.1Z" transform="translate(46.103 212.095)" fill="#ff9f8c"/>
    <path id="Path-9" data-name="Path" d="M7.58,9.917c23.6-24.1,40.3,1.3,38.7,17.3s3.8,26.5,3.8,26.5-17.8,6.5-22.6-12.7C22.58,21.817-16.02,34.017,7.58,9.917Z" transform="translate(78.02 0.183)" fill="#8c289b"/>
    <path id="Path-10" data-name="Path" d="M7.682,38.283a23.99,23.99,0,0,1-7.3-21.9c2.4-13.9,25.5-26.5,43-4.3,0,0,13.1-1.7,14.7,15.7,1.6,17.3-9.1,30.6-28.8,26.2C9.682,49.483,7.682,38.283,7.682,38.283Z" transform="translate(51.118 0.017)" fill="#aa2ea9"/>
    <path id="Path-11" data-name="Path" d="M7.9,27.1C12,21,18.4,12.1,22.6,7.8c5.9-6,14.1-5.2,14.1-5.2L49.6,0s6.4.7,13,1.3A27.033,27.033,0,0,1,83.2,14.7c6,10.4,13.9,23.9,13.9,23.9-6.4,8-18.6,14-18.6,14l-2.8-4.9c.1,6.3,2,14.9,4.3,23.1,1.6,5.9,3.4,11.5,4.8,16,7.6,23.4,7.4,68.5,7.4,68.5-12.6,10.6-63,24.2-92.2-1,1.5-16.6,17.7-51.6,25.6-69.8,7.9-18.3,4.5-19.6.1-29.1-4.3-9.5-1.1-16.3-1.1-16.3a28.542,28.542,0,0,1-3.5,5.3C20.4,43.4,12.2,33.3,7.9,27.1Z" transform="translate(31.1 56.8)" fill="#e05e8e"/>
    <path id="Shape" d="M5.216,76.9c.1.2.1.4.2.5l-.6.6S4.917,77.7,5.216,76.9Zm-2.9-59.2A62.056,62.056,0,0,1,.016,0a30.015,30.015,0,0,1,3.7,4.9c6,10.4,13.9,23.9,13.9,23.9a45.326,45.326,0,0,1-8.9,8.1C6.817,30.4,4.017,24.7,2.317,17.7Z" transform="translate(110.683 66.5)" fill="#da437b"/>
    <path id="Path-12" data-name="Path" d="M22,0c-1.3,3.5-6.1,6.7-9.2,15.7-2.4,7.2-5,13.3-6.4,16.4-2.2-2.9-4.6-6-6.4-8.5,4.1-6.1,10.5-15,14.7-19.3A20.822,20.822,0,0,1,22,0Z" transform="translate(38.8 60.2)" fill="#f08bb0"/>
    <path id="Path-13" data-name="Path" d="M5.207,134.9c4-10.8,13.6-40.1,9.8-60.3C10.307,49.4.907,35.7.107,23.2A51.442,51.442,0,0,1,4.307,0s8,15.1,12.2,21.7a.31.31,0,0,1-.2.1l-2.8-4.9c.1,6.3,2,14.9,4.3,23.1,1.6,5.9,3.4,11.5,4.8,16,7.6,23.4,7.4,68.5,7.4,68.5C25.607,128.1,16.407,132.2,5.207,134.9Z" transform="translate(93.293 87.6)" fill="#da437b"/>
    <path id="Path-14" data-name="Path" d="M0,1.251s10.1,3.2,15.8-.4c5.7-3.7,3,5.8-2.8,6.9C7.3,8.751,2.1,4.351,0,1.251Z" transform="translate(66.9 117.649)" fill="#da437b"/>
    <path id="Path-15" data-name="Path" d="M51.6,40.168c-5.2,6.8-13.2,12.9-21.2,12.1-10.1-.9-20.5-20.8-27-34.2S.7-3.632,6.6,1.568s28.2,26.7,28.2,26.7l3.7-5.3C42.7,29.268,51,39.568,51.6,40.168Z" transform="translate(0.6 60.732)" fill="#ff9f8c"/>
    <path id="Path-16" data-name="Path" d="M3.7,0c1.8,2.5,4.2,5.7,6.5,8.7-.4,1.5-1.9,4.2-3.5,2.7C5.1,10,0,5.3,0,5.3Z" transform="translate(35.3 83.9)" fill="#ffbbae"/>
    <path id="Path-17" data-name="Path" d="M30.7,52.268h-.3c-10.1-.9-20.5-20.8-27-34.2S.7-3.632,6.6,1.568c1.7,1.5,4.7,4.2,8.1,7.5,3,6.7,8.2,18.6,14.6,32.1C32.2,47.168,32.1,50.468,30.7,52.268Z" transform="translate(0.5 60.832)" fill="#ffbbae"/>
    <path id="Path-18" data-name="Path" d="M40,0s5.3,9.7,5.3,17c0,9.6-8.3,22.1-18.2,29.1-10,7-24.4,14.8-27.1,6.2L25.7,20.7,21.4,14C27.6,10.8,34.8,6.1,40,0Z" transform="translate(88.2 95.4)" fill="#ff9f8c"/>
    <path id="Path-19" data-name="Path" d="M2.1,8.1A48.676,48.676,0,0,0,11,0s5.3,9.7,5.3,17c0,9-7.2,20.5-16.3,27.6A76.171,76.171,0,0,0,4,23.1,51.145,51.145,0,0,0,2.1,8.1Z" transform="translate(117.2 95.4)" fill="#fb8973"/>
    <path id="Path-20" data-name="Path" d="M0,8.068l.8,3.8s2.5,8.4,7.8,9.2c5.3.7,14.1-11.6,14.1-11.6s-.6-5.3-1.1-8.9C21.2-2.532,0,8.068,0,8.068Z" transform="translate(66.1 48.232)" fill="#fb8973"/>
    <path id="Path-21" data-name="Path" d="M30.753,0s-15.5,8.2-29.7,8.6c.7,4.6-3.7,16.2,1.6,27s24.2,14,32.4-5.6c14.6.7,13.9-16.5.1-12.5C35.153,17.5,30.153,11.2,30.753,0Z" transform="translate(56.847 15.2)" fill="#ff9f8c"/>
  </g>
  <g id="Group-2" data-name="Group" transform="translate(78 96)">
    <path id="Path-22" data-name="Path" d="M56.568,0a116.063,116.063,0,0,0-29.3,22.9c-14.1,15.2-24.8,32.2-27.1,70s19.8,77.5,19.8,77.5l1.8,40s21.3,26.3,76.5,17c55.2-9.4,62.4-29.6,62.4-29.6s-1.6-18.9-1.7-24.3c6.4-12.7,15.8-41,7.3-82a425.53,425.53,0,0,0-12.9-46.7A66.665,66.665,0,0,0,103.268.3h0Z" transform="translate(55.832 185.7)" fill="#573e88"/>
    <path id="Path-23" data-name="Path" d="M55.968,0c16.3,6.4,18.3,33.6,18.7,72.1,0,0-26.9-29.3-33-42.9-9.4-.8-20.8,12.8-23.2,22.5s-25.3,29.1,12.8,16.8c33.9-11,25.1,49.2,49.4,67,18,13.2,55.2-6.7,56.1,7.3.8,12.7-60.5,29.7-63.1,34.4-7.7,14-3.6,36.5,4.4,51.8-40.3.9-56.3-18.9-56.3-18.9l-1.8-40s-22.1-39.7-19.8-77.5,13-54.8,27.1-70A116.256,116.256,0,0,1,55.968,0Z" transform="translate(55.832 186)" fill="#482f7b"/>
    <path id="Path-24" data-name="Path" d="M23.2,122.657a1.7,1.7,0,0,1-.7-.1s-14.1-73-15.9-79.9S.2,5.157,0,.757c-.1-3.5,14.1,5,27.1,28.5,1,4.1,2,8.2,2.8,12.3C38.4,81.557,29.6,109.457,23.2,122.657Z" transform="translate(191.999 235.543)" fill="#3e276c"/>
    <path id="Path-25" data-name="Path" d="M0,11.5S9.7,29.1,12.3,32.7c7.2,3.4,14.5-3.2,14.5-3.2l.5-19.2L10.8,0Z" transform="translate(137.4 202.1)" fill="#e2d6fb"/>
    <path id="Path-26" data-name="Path" d="M0,5.2,1.4,62.1,11.9,76.4l17.9-3L25.2,33.9,13.5,0Z" transform="translate(149.7 229.6)" fill="#c7b9e3"/>
    <path id="Path-27" data-name="Path" d="M52.7,103.9S21.2,38.7,18.5,32.6c4.7-12.8,13.8-27.2,34.4-3.9C49,11,39.1.1,29.4,0S0,17.9,0,17.9L41.4,106Z" transform="translate(119.4 199.8)" fill="url(#linear-gradient-3)"/>
    <path id="Path-28" data-name="Path" d="M8,1.3S-2.1,20.4.4,40.4C1,45.6,23.7,62.6,23.7,62.6s2.6,23.7,5.4,33c1.9,6.4,33,26.5,33,26.5L16.2,27.5,10.3,0Z" transform="translate(102.002 185.7)" fill="#3a2a5a"/>
    <path id="Path-29" data-name="Path" d="M0,0S17.7,29,20.5,35.6c-1.9,14.6-5.5,32-6.1,35.2C18,78.3,19,80.4,19,80.4s-2.7,18.4-4.1,24.1-4.9,2.7-4.9,2.7L1.4,16.8Z" transform="translate(167 198.9)" fill="#3a2a5a"/>
    <path id="Path-30" data-name="Path" d="M22.837,0s15.9,3.3,22.2,23.9c5.9,19.1,10.1,57.5,10.1,57.5s8.3-1.1,13.1-.5,59.3-4.2,68.1-5.6c13,7.1,12.8,30,8.4,34,0,0-31.5,12.4-60,18.1s-60.5,9.3-67.8,6-16.6-25-16.9-57.3C-.163,43.7-.363,3.8,22.837,0Z" transform="translate(55.363 222.5)" fill="#503882"/>
    <path id="Path-31" data-name="Path" d="M14.87,26.1c-.7.3-12,5-14.6-.1-1.8-3.5,5.8-17.1,11.2-26,2.2,14,3.5,26.1,3.4,26.1Z" transform="translate(95.53 277.8)" fill="#3e276c"/>
    <path id="Path-32" data-name="Path" d="M87.161,126.9c-.8.2-1.6.3-2.4.5-28.5,5.7-60.5,9.3-67.8,6s-16.6-25-16.9-57.3S-.339,3.8,22.861,0a21.133,21.133,0,0,1,3.5,1.2c-3.9,6.8-11.2,24.5-7.2,55.6,5.3,41.2,16.3,58.7,39.6,63.7C72.161,123.4,81.561,125.6,87.161,126.9Z" transform="translate(55.239 222.4)" fill="#472f78"/>
    <path id="Path-33" data-name="Path" d="M5.394,0h.1c13,7.1,12.8,30,8.4,34,0,0-.5.2-1.4.6-3.5-1.3-7-5.7-10.7-15.9C-3.006,5.3,3.094,1.1,5.394,0Z" transform="translate(186.106 297.7)" fill="#231f2d"/>
    <path id="Path-34" data-name="Path" d="M25.5,5.5.6,0,0,55.2a38.158,38.158,0,0,0,25.4,0V5.5Z" transform="translate(221.1 278.6)" fill="#271613"/>
    <path id="Path-35" data-name="Path" d="M.582,16.858s12.2-6,29.8-13.8c12.6-8.5,37.7,1.7,38.5,18.5s-20.2,14.4-31.4,9.6c-11.7,4.2-29.7,10.7-29.7,10.7S-2.518,30.558.582,16.858Z" transform="translate(186.218 286.242)" fill="#ff9f8c"/>
    <path id="Path-36" data-name="Path" d="M19.6,103.914s-6.1-.9-12.4-10.9c-6.4-10-6.7-19.2-7.2-24.4,0,0,10.5-8.4,14.2-26.7S28.6.814,69.8.014c37.6-.7,41.5,25.7,41.5,25.7s27.9,5.5,4.5,49.9C92.3,120.014,19.6,103.914,19.6,103.914Z" transform="translate(72.8 61.486)" fill="#53469c"/>
    <path id="Path-37" data-name="Path" d="M1.5,18.9s12.7-2.2,22.2,13.4c0,0,6.9-19.3-8.6-32.3L0,11.5Z" transform="translate(145.6 189.6)" fill="#6f4bb9"/>
    <path id="Path-38" data-name="Path" d="M25.231,83.3s-2.8-9.6-3.7-13.3c-30.8,5.4-23-25.7-10.7-26.5,12.4-.8,13.3,16.1,18.3-2.9s4.8-17.8,4.8-17.8,27.1-8.1,35.7-13.9A115.816,115.816,0,0,1,85.131,0s11.3,12.4,13.8,19.6c2.4,7.3,7.3,37.8-4.2,53.5-11.5,15.6-26,17.5-26,17.5l-11.3,16.9Z" transform="translate(89.169 101.1)" fill="#ff9f8c"/>
    <path id="Path-39" data-name="Path" d="M.464,9.5A52.128,52.128,0,0,1,.064,0c14.3,4.4,24.3,2,24.3,2l-11.3,16.9Z" transform="translate(133.436 189.6)" fill="#e7755e"/>
    <path id="Shape-2" data-name="Shape" d="M0,43.7C8.7,45,10.6,55.2,14.1,45.8A52.4,52.4,0,0,1,11.9,53c-.464,1.11-1,1.577-1.61,1.577C7.887,54.577,4.389,47.292,0,43.7ZM20.4,22.8s14.2-4.1,25.2-8.6C33.4,20.9,20,28.3,18.5,30.1c-.1.1-.1.2-.2.2C20.5,22.2,20.4,22.8,20.4,22.8ZM60.7,6A109.148,109.148,0,0,1,71.6,0,121.77,121.77,0,0,1,81.7,12.7C81.5,12.5,72.6-.5,60.7,6Z" transform="translate(102.6 101)" fill="#e7755e"/>
    <path id="Path-40" data-name="Path" d="M4.29,0l33.3,26.3s-12.3,4-14.1,23.9C23.39,50.1-12.01,22.2,4.29,0Z" transform="translate(109.51 182.3)" fill="#6f4bb9"/>
    <path id="Path-41" data-name="Path" d="M7.3,43.9h0C7.5,43.8,145.8,0,145.8,0l.8,157.7S5.4,95.9,5.3,95.8h0A54.946,54.946,0,0,1,0,71.8,53.655,53.655,0,0,1,7.3,43.9Z" transform="translate(203.697 181.3)" fill="url(#linear-gradient-4)"/>
    <ellipse id="Oval-3" data-name="Oval" cx="60.9" cy="81" rx="60.9" ry="81" transform="translate(303 179)" fill="#e7755e"/>
    <path id="Path-42" data-name="Path" d="M6.8.2C8.7.1,10.7,0,12.7,0,46.3,0,73.6,16.5,73.6,36.8S46.3,73.6,12.7,73.6c-2.2,0-4.3-.1-6.4-.2A103.644,103.644,0,0,1,0,37.5,102.263,102.263,0,0,1,6.8.2Z" transform="translate(303 222.5)" fill="#af4c39"/>
    <path id="Path-43" data-name="Path" d="M83.5,156.2A48.069,48.069,0,0,1,60.9,162C27.3,162,0,125.7,0,81S27.3,0,60.9,0A48.286,48.286,0,0,1,80.1,4.1c-16.5,17.5-27,44.3-27,74.3C53.1,110.5,65.1,138.8,83.5,156.2Z" transform="translate(303 179.1)" fill="url(#linear-gradient-5)"/>
    <path id="Shape-3" data-name="Shape" d="M34.34,156.3c-37.1-24.9-44.2-85.2-21-124.5C23.739,14.2,41.639.2,62.439,0h.4a52.491,52.491,0,0,1,31.7,11.6c20.8,16.3,30.7,44.4,30.6,71.5-.2,33.1-15.5,68.4-46.4,79.3a47.272,47.272,0,0,1-15.68,2.622A52.035,52.035,0,0,1,34.34,156.3Z" transform="translate(301.26 177.5)" fill="#ffc4c4"/>
    <path id="Path-44" data-name="Path" d="M61.4,0,48.9,12.4,35.5,7.9,0,26.7l6.7,7.6,25-13.8,15.8,6.8L66.2,9.9Z" transform="translate(381.7 189.6)" fill="#e6d77c"/>
    <path id="Path-45" data-name="Path" d="M0,38.6l9.6,1.5,5-14.8L27.2,28,37.1,2.8,28,0,21.8,16.6l-14.2.1Z" transform="translate(217.7 21.5)" fill="#ea6c6c"/>
    <path id="Path-46" data-name="Path" d="M69,10.1,42,8.5,36.9,0H0L.2,8.4l28.2,3.4,4,7.7,37.3,1.9Z" transform="translate(394 252.8)" fill="#e6d77c"/>
    <path id="Path-47" data-name="Path" d="M64.6,42.4,44.3,31.6l.6-11.9L5.8,0,0,6.4,34.3,27.1l-.9,11.7,26.2,15Z" transform="translate(378 290.1)" fill="#e6d77c"/>
    <path id="Path-48" data-name="Path" d="M1.9,23.4,0,0,19.1,11Z" transform="translate(270.4 93.9)" fill="#f76868"/>
    <path id="Path-49" data-name="Path" d="M18.2,20.4,0,6.7,20.3,0Z" transform="translate(28.3 61.6)" fill="#f76868"/>
    <path id="Path-50" data-name="Path" d="M1.7,21.5,0,0,17.5,10.1Z" transform="translate(148.9)" fill="#f76868"/>
    <path id="Path-51" data-name="Path" d="M0,12.5,18.7,2.4,33.1,9.1,47.7,0l8.5,8.5L34.3,23.6,18.8,14.8.7,25.2Z" transform="translate(0.2 143.8)" fill="#d95454"/>
  </g>
</svg>
